<?xml version="1.0" standalone="no"?>
<!DOCTYPE svg PUBLIC "-//W3C//DTD SVG 20010904//EN"
 "http://www.w3.org/TR/2001/REC-SVG-20010904/DTD/svg10.dtd">
<svg version="1.0" xmlns="http://www.w3.org/2000/svg"
 width="141.000000pt" height="137.000000pt" viewBox="0 0 141.000000 137.000000"
 preserveAspectRatio="xMidYMid meet">

<g transform="translate(0.000000,137.000000) scale(0.100000,-0.100000)"
fill="#000000" stroke="none">
<path d="M540 1315 c-223 -61 -403 -233 -470 -450 -79 -257 11 -543 225 -711
68 -54 175 -105 255 -125 78 -18 241 -16 319 5 178 48 341 181 420 343 176
360 8 778 -369 918 -64 24 -93 28 -200 31 -89 3 -141 0 -180 -11z m352 -78
c202 -74 351 -241 393 -442 65 -309 -120 -611 -430 -700 -77 -23 -220 -23
-304 -1 -203 53 -365 212 -427 421 -12 40 -18 93 -18 160 0 169 54 297 178
420 80 80 160 126 268 155 101 28 245 22 340 -13z"/>
<path d="M435 1008 c-3 -7 -4 -157 -3 -333 l3 -320 22 -3 c26 -4 32 12 35 103
l3 59 65 17 c89 24 110 23 198 -7 87 -31 169 -29 224 3 l33 19 3 206 c2 178 0
207 -14 219 -13 10 -21 10 -47 0 -80 -32 -110 -33 -192 -6 -89 29 -116 30
-200 10 -77 -19 -73 -19 -77 13 -2 19 -9 28 -26 30 -12 2 -24 -3 -27 -10z
m305 -99 c45 -17 71 -20 138 -17 l82 4 0 -157 0 -157 -31 -11 c-48 -17 -87
-13 -164 14 -81 28 -119 30 -195 10 -87 -23 -81 -34 -78 142 l3 156 60 17 c82
24 121 24 185 -1z"/>
</g>
</svg>
