<?xml version="1.0" standalone="no"?>
<!DOCTYPE svg PUBLIC "-//W3C//DTD SVG 20010904//EN"
 "http://www.w3.org/TR/2001/REC-SVG-20010904/DTD/svg10.dtd">
<svg version="1.0" xmlns="http://www.w3.org/2000/svg"
 width="142.000000pt" height="143.000000pt" viewBox="0 0 142.000000 143.000000"
 preserveAspectRatio="xMidYMid meet">

<g transform="translate(0.000000,143.000000) scale(0.100000,-0.100000)"
fill="#000000" stroke="none">
<path d="M532 1350 c-228 -60 -412 -250 -467 -483 -21 -89 -19 -228 5 -321 49
-191 185 -351 372 -435 84 -38 150 -51 263 -51 125 0 182 13 294 67 77 37 108
59 172 122 63 64 85 95 122 172 57 120 67 163 67 294 0 130 -10 175 -66 292
-79 165 -226 288 -408 340 -101 30 -247 31 -354 3z m300 -51 c99 -20 213 -83
292 -162 120 -120 176 -255 176 -424 0 -171 -52 -295 -175 -418 -123 -123
-247 -175 -418 -175 -169 0 -304 56 -424 176 -125 126 -181 277 -170 457 9
152 65 276 171 383 139 139 354 203 548 163z"/>
<path d="M595 1030 c-45 -18 -72 -72 -56 -111 16 -39 146 -169 168 -169 12 0
51 32 97 78 69 70 76 80 76 118 0 79 -88 118 -145 64 l-25 -23 -22 20 c-28 25
-66 34 -93 23z"/>
<path d="M549 646 c-20 -7 -52 -25 -71 -39 -20 -15 -48 -27 -64 -27 -17 0 -35
-5 -42 -12 -16 -16 -16 -110 0 -126 16 -16 450 -17 481 -1 43 22 195 140 201
155 7 19 -8 50 -30 58 -18 7 -50 -11 -134 -74 -54 -41 -55 -41 -135 -38 -67 3
-80 6 -83 21 -3 15 5 17 56 17 33 0 67 3 76 6 19 7 21 45 4 62 -16 16 -212 15
-259 -2z"/>
</g>
</svg>
