<?xml version="1.0" standalone="no"?>
<!DOCTYPE svg PUBLIC "-//W3C//DTD SVG 20010904//EN"
 "http://www.w3.org/TR/2001/REC-SVG-20010904/DTD/svg10.dtd">
<svg version="1.0" xmlns="http://www.w3.org/2000/svg"
 width="388.000000pt" height="388.000000pt" viewBox="0 0 388.000000 388.000000"
 preserveAspectRatio="xMidYMid meet">

<g transform="translate(0.000000,388.000000) scale(0.100000,-0.100000)"
fill="#000000" stroke="none">
<path d="M1755 3784 c-229 -33 -359 -65 -517 -129 -446 -179 -818 -543 -1007
-986 -272 -639 -170 -1367 269 -1903 83 -103 251 -260 361 -339 173 -124 437
-243 644 -292 198 -46 492 -59 694 -30 122 18 302 63 398 101 116 45 314 152
413 222 123 87 345 309 432 432 254 360 368 766 339 1207 -18 262 -78 478
-197 713 -268 526 -746 878 -1339 985 -86 16 -422 29 -490 19z m395 -185 c217
-24 449 -104 655 -227 257 -153 516 -438 636 -700 109 -238 156 -426 166 -667
11 -274 -39 -523 -156 -778 -234 -504 -715 -862 -1276 -948 -103 -16 -377 -16
-480 0 -372 57 -715 234 -963 496 -257 271 -401 564 -457 930 -23 148 -16 416
15 560 73 344 229 629 474 869 186 181 365 294 601 379 261 94 484 119 785 86z"/>
<path d="M1844 2981 c-248 -40 -452 -192 -561 -419 -58 -121 -77 -219 -69
-364 9 -168 57 -285 193 -469 98 -132 158 -234 178 -301 l16 -58 94 0 c52 0
96 3 98 8 9 13 -31 143 -63 209 -18 36 -61 107 -95 157 -34 50 -87 128 -117
173 -100 146 -134 285 -105 428 64 313 345 497 658 431 337 -72 519 -458 362
-770 -14 -28 -69 -114 -123 -191 -117 -167 -161 -247 -189 -339 -34 -111 -37
-107 75 -104 l97 3 12 40 c24 82 84 183 210 355 123 167 166 291 166 475 0
213 -64 369 -216 521 -101 101 -194 157 -324 193 -85 24 -222 33 -297 22z"/>
<path d="M1855 2566 c-136 -43 -213 -129 -234 -262 -10 -66 -2 -97 29 -114 17
-9 29 -9 51 0 30 13 34 20 45 85 14 86 79 158 154 170 69 12 79 15 94 31 22
21 20 60 -4 84 -23 23 -74 25 -135 6z"/>
<path d="M1613 1214 c-10 -26 15 -160 37 -205 32 -62 83 -112 147 -144 50 -26
69 -30 143 -30 108 0 167 22 236 87 67 63 96 129 102 231 l5 77 -332 0 c-298
0 -332 -2 -338 -16z"/>
</g>
</svg>
