<?xml version="1.0" standalone="no"?>
<!DOCTYPE svg PUBLIC "-//W3C//DTD SVG 20010904//EN"
 "http://www.w3.org/TR/2001/REC-SVG-20010904/DTD/svg10.dtd">
<svg version="1.0" xmlns="http://www.w3.org/2000/svg"
 width="193.000000pt" height="193.000000pt" viewBox="0 0 193.000000 193.000000"
 preserveAspectRatio="xMidYMid meet">

<g transform="translate(0.000000,193.000000) scale(0.100000,-0.100000)"
fill="#000000" stroke="none">
<path d="M780 1896 c-89 -19 -180 -51 -259 -91 -234 -119 -416 -346 -487 -610
-29 -109 -27 -372 4 -479 102 -351 363 -598 720 -681 85 -20 310 -20 396 0
167 39 314 114 437 224 127 114 224 267 275 436 26 83 28 104 28 260 1 137 -3
184 -18 240 -75 278 -267 509 -522 627 -126 59 -219 80 -374 84 -89 2 -157 -1
-200 -10z m319 -87 c319 -51 591 -297 683 -616 20 -67 23 -101 22 -238 0 -147
-2 -167 -28 -245 -120 -368 -440 -602 -821 -602 -294 0 -548 135 -714 380 -50
74 -80 139 -112 242 -20 65 -23 96 -24 230 0 180 12 234 80 377 118 244 360
429 618 472 74 12 221 13 296 0z"/>
<path d="M848 1481 c-106 -35 -185 -108 -236 -219 -22 -47 -26 -71 -26 -142 0
-101 22 -159 105 -273 28 -38 63 -94 76 -124 24 -52 25 -53 69 -53 36 0 44 3
44 19 0 39 -25 90 -101 204 -57 87 -81 132 -89 173 -38 183 107 347 294 332
73 -6 128 -32 177 -85 49 -51 70 -94 76 -159 9 -83 -11 -138 -92 -259 -68
-101 -105 -176 -105 -211 0 -10 14 -14 49 -14 46 0 50 2 56 29 3 15 42 81 85
145 83 123 97 156 107 247 15 152 -78 309 -223 376 -76 34 -187 40 -266 14z"/>
<path d="M885 1274 c-47 -26 -63 -43 -81 -90 -21 -55 -13 -97 19 -92 16 2 26
14 35 43 16 51 42 77 90 90 30 9 37 15 37 35 0 21 -5 25 -35 27 -19 2 -48 -5
-65 -13z"/>
<path d="M790 567 c0 -46 39 -118 79 -144 47 -32 135 -32 181 0 50 33 72 70
78 126 l5 51 -172 0 -171 0 0 -33z"/>
</g>
</svg>
